<mxfile host="Electron" modified="2025-08-22T15:13:18.194Z" agent="Mozilla/5.0 (Windows NT 10.0; Win64; x64) AppleWebKit/537.36 (KHTML, like Gecko) draw.io/22.0.2 Chrome/114.0.5735.289 Electron/25.8.4 Safari/537.36" etag="N9yfoXhPr6SEjz-crufq" version="22.0.2" type="device">
  <diagram name="PÃ¡gina-1" id="AJ0ifoVZwSIVoKNOl8yM">
    <mxGraphModel dx="2117" dy="629" grid="1" gridSize="10" guides="1" tooltips="1" connect="1" arrows="1" fold="1" page="1" pageScale="1" pageWidth="827" pageHeight="1169" math="0" shadow="0">
      <root>
        <mxCell id="0" />
        <mxCell id="1" parent="0" />
        <mxCell id="NPVVzouNh2OXmXXUBs-p-1" value="Area de Sistema" style="shape=umlFrame;whiteSpace=wrap;html=1;pointerEvents=0;width=290;height=20;" vertex="1" parent="1">
          <mxGeometry x="60" y="50" width="650" height="590" as="geometry" />
        </mxCell>
        <mxCell id="NPVVzouNh2OXmXXUBs-p-24" style="edgeStyle=orthogonalEdgeStyle;rounded=0;orthogonalLoop=1;jettySize=auto;html=1;entryX=0;entryY=0.5;entryDx=0;entryDy=0;endArrow=none;endFill=0;" edge="1" parent="1" source="NPVVzouNh2OXmXXUBs-p-2" target="NPVVzouNh2OXmXXUBs-p-18">
          <mxGeometry relative="1" as="geometry" />
        </mxCell>
        <mxCell id="NPVVzouNh2OXmXXUBs-p-25" style="edgeStyle=orthogonalEdgeStyle;rounded=0;orthogonalLoop=1;jettySize=auto;html=1;entryX=0;entryY=0.5;entryDx=0;entryDy=0;exitX=1;exitY=1;exitDx=0;exitDy=0;exitPerimeter=0;endArrow=none;endFill=0;" edge="1" parent="1" source="NPVVzouNh2OXmXXUBs-p-2" target="NPVVzouNh2OXmXXUBs-p-19">
          <mxGeometry relative="1" as="geometry">
            <mxPoint x="25" y="200" as="sourcePoint" />
            <Array as="points">
              <mxPoint x="80" y="160" />
              <mxPoint x="80" y="200" />
              <mxPoint x="135" y="200" />
              <mxPoint x="135" y="255" />
            </Array>
          </mxGeometry>
        </mxCell>
        <mxCell id="NPVVzouNh2OXmXXUBs-p-26" style="edgeStyle=orthogonalEdgeStyle;rounded=0;orthogonalLoop=1;jettySize=auto;html=1;entryX=0;entryY=0.5;entryDx=0;entryDy=0;endArrow=none;endFill=0;" edge="1" parent="1" source="NPVVzouNh2OXmXXUBs-p-2" target="NPVVzouNh2OXmXXUBs-p-21">
          <mxGeometry relative="1" as="geometry">
            <mxPoint x="20" y="210" as="sourcePoint" />
            <Array as="points">
              <mxPoint x="25" y="260" />
              <mxPoint x="85" y="260" />
              <mxPoint x="85" y="365" />
            </Array>
          </mxGeometry>
        </mxCell>
        <mxCell id="NPVVzouNh2OXmXXUBs-p-2" value="Jefe de&lt;br&gt;Sector" style="shape=umlActor;verticalLabelPosition=bottom;verticalAlign=top;html=1;" vertex="1" parent="1">
          <mxGeometry x="10" y="100" width="30" height="60" as="geometry" />
        </mxCell>
        <mxCell id="NPVVzouNh2OXmXXUBs-p-3" value="Tiempo" style="shape=umlActor;verticalLabelPosition=bottom;verticalAlign=top;html=1;" vertex="1" parent="1">
          <mxGeometry x="740" y="110" width="30" height="60" as="geometry" />
        </mxCell>
        <mxCell id="NPVVzouNh2OXmXXUBs-p-4" value="Sistema&amp;nbsp;&lt;br&gt;de RRHH" style="shape=umlActor;verticalLabelPosition=bottom;verticalAlign=top;html=1;" vertex="1" parent="1">
          <mxGeometry x="10" y="310" width="30" height="60" as="geometry" />
        </mxCell>
        <mxCell id="NPVVzouNh2OXmXXUBs-p-5" value="Mesa de&lt;br&gt;Ayuda" style="shape=umlActor;verticalLabelPosition=bottom;verticalAlign=top;html=1;" vertex="1" parent="1">
          <mxGeometry x="740" y="310" width="30" height="60" as="geometry" />
        </mxCell>
        <mxCell id="NPVVzouNh2OXmXXUBs-p-29" style="edgeStyle=orthogonalEdgeStyle;rounded=0;orthogonalLoop=1;jettySize=auto;html=1;entryX=1;entryY=0.5;entryDx=0;entryDy=0;endArrow=none;endFill=0;" edge="1" parent="1" source="NPVVzouNh2OXmXXUBs-p-6" target="NPVVzouNh2OXmXXUBs-p-22">
          <mxGeometry relative="1" as="geometry" />
        </mxCell>
        <mxCell id="NPVVzouNh2OXmXXUBs-p-6" value="Responsable&lt;br&gt;Area de&lt;br&gt;Sistemas" style="shape=umlActor;verticalLabelPosition=bottom;verticalAlign=top;html=1;" vertex="1" parent="1">
          <mxGeometry x="740" y="510" width="30" height="60" as="geometry" />
        </mxCell>
        <mxCell id="NPVVzouNh2OXmXXUBs-p-7" value="Empleado" style="shape=umlActor;verticalLabelPosition=bottom;verticalAlign=top;html=1;" vertex="1" parent="1">
          <mxGeometry x="10" y="490" width="30" height="60" as="geometry" />
        </mxCell>
        <mxCell id="NPVVzouNh2OXmXXUBs-p-9" value="actor secundario" style="text;html=1;align=center;verticalAlign=middle;resizable=0;points=[];autosize=1;strokeColor=none;fillColor=none;" vertex="1" parent="1">
          <mxGeometry x="-130" y="280" width="110" height="30" as="geometry" />
        </mxCell>
        <mxCell id="NPVVzouNh2OXmXXUBs-p-10" style="edgeStyle=orthogonalEdgeStyle;rounded=0;orthogonalLoop=1;jettySize=auto;html=1;entryX=0.25;entryY=0.1;entryDx=0;entryDy=0;entryPerimeter=0;" edge="1" parent="1" source="NPVVzouNh2OXmXXUBs-p-9" target="NPVVzouNh2OXmXXUBs-p-4">
          <mxGeometry relative="1" as="geometry" />
        </mxCell>
        <mxCell id="NPVVzouNh2OXmXXUBs-p-14" style="edgeStyle=orthogonalEdgeStyle;rounded=0;orthogonalLoop=1;jettySize=auto;html=1;endArrow=none;endFill=0;" edge="1" parent="1" source="NPVVzouNh2OXmXXUBs-p-11">
          <mxGeometry relative="1" as="geometry">
            <mxPoint x="730" y="365" as="targetPoint" />
          </mxGeometry>
        </mxCell>
        <mxCell id="NPVVzouNh2OXmXXUBs-p-11" value="CU001&lt;br&gt;Registrar Requerimiento" style="ellipse;whiteSpace=wrap;html=1;" vertex="1" parent="1">
          <mxGeometry x="450" y="330" width="140" height="70" as="geometry" />
        </mxCell>
        <mxCell id="NPVVzouNh2OXmXXUBs-p-12" value="CU002&lt;br&gt;Reportar Fallas" style="ellipse;whiteSpace=wrap;html=1;" vertex="1" parent="1">
          <mxGeometry x="440" y="220" width="140" height="70" as="geometry" />
        </mxCell>
        <mxCell id="NPVVzouNh2OXmXXUBs-p-13" style="edgeStyle=orthogonalEdgeStyle;rounded=0;orthogonalLoop=1;jettySize=auto;html=1;entryX=0.5;entryY=0;entryDx=0;entryDy=0;entryPerimeter=0;endArrow=none;endFill=0;" edge="1" parent="1" source="NPVVzouNh2OXmXXUBs-p-12" target="NPVVzouNh2OXmXXUBs-p-5">
          <mxGeometry relative="1" as="geometry" />
        </mxCell>
        <mxCell id="NPVVzouNh2OXmXXUBs-p-16" style="edgeStyle=orthogonalEdgeStyle;rounded=0;orthogonalLoop=1;jettySize=auto;html=1;endArrow=none;endFill=0;" edge="1" parent="1" source="NPVVzouNh2OXmXXUBs-p-15" target="NPVVzouNh2OXmXXUBs-p-3">
          <mxGeometry relative="1" as="geometry" />
        </mxCell>
        <mxCell id="NPVVzouNh2OXmXXUBs-p-15" value="CU003&lt;br&gt;Enviar Recordatorio&lt;br&gt;de Fallas" style="ellipse;whiteSpace=wrap;html=1;" vertex="1" parent="1">
          <mxGeometry x="490" y="100" width="140" height="70" as="geometry" />
        </mxCell>
        <mxCell id="NPVVzouNh2OXmXXUBs-p-17" value="CU005&lt;br&gt;Buscar Falla" style="ellipse;whiteSpace=wrap;html=1;" vertex="1" parent="1">
          <mxGeometry x="320" y="100" width="140" height="70" as="geometry" />
        </mxCell>
        <mxCell id="NPVVzouNh2OXmXXUBs-p-18" value="CU004&lt;br&gt;Asignar Responsable de&amp;nbsp;&lt;br&gt;Fallas" style="ellipse;whiteSpace=wrap;html=1;" vertex="1" parent="1">
          <mxGeometry x="110" y="110" width="140" height="70" as="geometry" />
        </mxCell>
        <mxCell id="NPVVzouNh2OXmXXUBs-p-19" value="CU006&lt;br&gt;Registrar Requerimiento&lt;br&gt;de Capacitacion" style="ellipse;whiteSpace=wrap;html=1;" vertex="1" parent="1">
          <mxGeometry x="230" y="220" width="140" height="70" as="geometry" />
        </mxCell>
        <mxCell id="NPVVzouNh2OXmXXUBs-p-20" value="include" style="endArrow=open;endSize=12;dashed=1;html=1;rounded=0;exitX=1;exitY=1;exitDx=0;exitDy=0;entryX=0;entryY=1;entryDx=0;entryDy=0;" edge="1" parent="1" source="NPVVzouNh2OXmXXUBs-p-18" target="NPVVzouNh2OXmXXUBs-p-17">
          <mxGeometry width="160" relative="1" as="geometry">
            <mxPoint x="480" y="350" as="sourcePoint" />
            <mxPoint x="640" y="350" as="targetPoint" />
          </mxGeometry>
        </mxCell>
        <mxCell id="NPVVzouNh2OXmXXUBs-p-21" value="CU007&lt;br&gt;Consultar Fallas Asignadas" style="ellipse;whiteSpace=wrap;html=1;" vertex="1" parent="1">
          <mxGeometry x="130" y="330" width="140" height="70" as="geometry" />
        </mxCell>
        <mxCell id="NPVVzouNh2OXmXXUBs-p-22" value="CU008&lt;br&gt;Registrar Solucion&lt;br&gt;de Fallas" style="ellipse;whiteSpace=wrap;html=1;" vertex="1" parent="1">
          <mxGeometry x="210" y="450" width="140" height="70" as="geometry" />
        </mxCell>
        <mxCell id="NPVVzouNh2OXmXXUBs-p-23" value="include" style="endArrow=open;endSize=12;dashed=1;html=1;rounded=0;exitX=0.424;exitY=0.029;exitDx=0;exitDy=0;entryX=1;entryY=1;entryDx=0;entryDy=0;exitPerimeter=0;" edge="1" parent="1" source="NPVVzouNh2OXmXXUBs-p-22" target="NPVVzouNh2OXmXXUBs-p-21">
          <mxGeometry width="160" relative="1" as="geometry">
            <mxPoint x="239" y="180" as="sourcePoint" />
            <mxPoint x="351" y="170" as="targetPoint" />
          </mxGeometry>
        </mxCell>
        <mxCell id="NPVVzouNh2OXmXXUBs-p-27" style="edgeStyle=orthogonalEdgeStyle;rounded=0;orthogonalLoop=1;jettySize=auto;html=1;entryX=0.027;entryY=0.731;entryDx=0;entryDy=0;entryPerimeter=0;endArrow=none;endFill=0;" edge="1" parent="1" source="NPVVzouNh2OXmXXUBs-p-4" target="NPVVzouNh2OXmXXUBs-p-19">
          <mxGeometry relative="1" as="geometry">
            <Array as="points">
              <mxPoint x="190" y="320" />
              <mxPoint x="190" y="271" />
            </Array>
          </mxGeometry>
        </mxCell>
        <mxCell id="NPVVzouNh2OXmXXUBs-p-28" style="edgeStyle=orthogonalEdgeStyle;rounded=0;orthogonalLoop=1;jettySize=auto;html=1;entryX=0.013;entryY=0.669;entryDx=0;entryDy=0;entryPerimeter=0;endArrow=none;endFill=0;" edge="1" parent="1" source="NPVVzouNh2OXmXXUBs-p-7" target="NPVVzouNh2OXmXXUBs-p-22">
          <mxGeometry relative="1" as="geometry" />
        </mxCell>
      </root>
    </mxGraphModel>
  </diagram>
</mxfile>
